<svg width="46" height="46" viewBox="0 0 46 46" fill="none" xmlns="http://www.w3.org/2000/svg">
<path d="M10.1347 32.3196C20.1385 36.1545 28.6518 36.9015 38.2992 30.9323C38.2284 31.0365 36.3201 33.8136 31.3017 35.2369C32.3619 36.6602 33.8109 38.2917 33.8109 38.2917C37.0269 38.2917 40.1722 37.3891 42.8934 35.6534C45.0139 34.2648 46.2154 31.8695 45.968 29.3702C45.5439 25.1002 44.519 20.9345 42.9287 16.9424C40.9143 11.7353 36.0727 8.12495 30.4536 7.60419C29.9588 7.56946 29.6054 7.56946 29.3934 7.56946L28.828 8.12484C35.2953 9.93002 38.5113 12.7419 38.5819 12.8461C28.6512 7.91656 16.9182 7.8472 6.91674 12.6378C6.91674 12.6378 10.0974 9.54818 17.1301 7.91656L16.706 7.5C15.9639 7.5 15.257 7.56946 14.515 7.67355C9.31987 8.54141 4.97304 12.0476 3.09996 16.8729C1.47426 21.0386 0.414076 25.4126 0.025358 29.8561C-0.18668 32.2166 0.944223 34.5426 2.92328 35.8964C5.53844 37.5974 8.6484 38.5 11.7937 38.5C11.7937 38.5 13.0659 36.8684 14.3383 35.4104C9.56726 34.0218 7.62357 31.2447 7.58821 31.1405L8.48609 31.5909C9.02285 31.8603 9.57314 32.1043 10.1347 32.3196ZM15.6812 29.3007C13.384 29.2312 11.5817 27.322 11.6524 25.0308C11.7231 22.8785 13.4901 21.1428 15.6812 21.0733C17.9784 21.1428 19.7807 23.052 19.71 25.3432C19.604 27.4956 17.8723 29.2313 15.6812 29.3007ZM30.1001 29.3007C27.8029 29.2312 26.0006 27.322 26.0713 25.0308C26.142 22.8785 27.909 21.1428 30.1001 21.0733C32.3973 21.1428 34.1996 23.052 34.1289 25.3432C34.0583 27.4956 32.2912 29.2313 30.1001 29.3007Z" fill="white"/>
</svg>
