<svg width="492" height="16" viewBox="0 0 492 16" fill="none" xmlns="http://www.w3.org/2000/svg">
<mask id="mask0_3_3338" style="mask-type:luminance" maskUnits="userSpaceOnUse" x="0" y="0" width="492" height="16">
<path d="M0.000488281 4.75977L486.429 0.879122L491.962 11.2658L5.53392 15.1464L0.000488281 4.75977Z" fill="white"/>
</mask>
<g mask="url(#mask0_3_3338)">
<path fill-rule="evenodd" clip-rule="evenodd" d="M489.366 6.52121C489.366 6.52121 466.588 6.54066 430.876 6.61344C406.587 6.66126 376.325 6.7241 343.185 6.82621C327.487 6.8753 311.145 6.93134 294.501 7.00882C278.47 7.08051 262.155 7.1599 245.856 7.26909C232.841 7.35479 219.835 7.4522 206.994 7.57731C187.031 7.77102 167.464 8.01415 148.814 8.25087C128.031 8.51367 108.415 8.79164 90.7004 9.04991C38.989 9.80603 3.6137 10.3965 3.6137 10.3965C3.6137 10.3965 39.3165 10.4208 91.3924 10.3489C109.231 10.3235 128.976 10.2875 149.862 10.2179C168.605 10.1563 188.263 10.0837 208.264 9.96134C221.129 9.88136 234.127 9.76951 247.124 9.6495C263.4 9.49699 279.662 9.3174 295.634 9.13468C312.218 8.94527 328.482 8.74298 344.099 8.54044C377.066 8.11516 407.139 7.69756 431.273 7.35907C466.761 6.86473 489.366 6.52121 489.366 6.52121Z" fill="url(#paint0_linear_3_3338)"/>
</g>
<defs>
<linearGradient id="paint0_linear_3_3338" x1="276.148" y1="8.61463" x2="276.05" y2="4.82852" gradientUnits="userSpaceOnUse">
<stop stop-color="#8F5534"/>
<stop offset="1" stop-color="#F59159"/>
</linearGradient>
</defs>
</svg>
